<?xml version="1.0" encoding="UTF-8"?>
<!DOCTYPE svg PUBLIC "-//W3C//DTD SVG 1.1//EN" "http://www.w3.org/Graphics/SVG/1.1/DTD/svg11.dtd">
<svg xmlns="http://www.w3.org/2000/svg" version="1.1" width="890px" height="729px" style="shape-rendering:geometricPrecision; text-rendering:geometricPrecision; image-rendering:optimizeQuality; fill-rule:evenodd; clip-rule:evenodd" xmlns:xlink="http://www.w3.org/1999/xlink">
<g><path style="opacity:1" fill="#dfdfea" d="M -0.5,-0.5 C 296.167,-0.5 592.833,-0.5 889.5,-0.5C 889.5,0.166667 889.5,0.833333 889.5,1.5C 780.332,1.16718 671.332,1.50051 562.5,2.5C 499.523,1.51454 436.523,1.18121 373.5,1.5C 249.5,1.5 125.5,1.5 1.5,1.5C 1.16695,199.334 1.50028,397.001 2.5,594.5C 1.40217,598.909 0.402166,603.242 -0.5,607.5C -0.5,404.833 -0.5,202.167 -0.5,-0.5 Z"/></g>
<g><path style="opacity:1" fill="#fefefe" d="M 373.5,1.5 C 371.5,3.67098 369.666,6.00432 368,8.5C 367.5,46.8319 367.333,85.1652 367.5,123.5C 329.499,123.333 291.499,123.5 253.5,124C 250.087,125.077 247.587,127.244 246,130.5C 245.333,230.5 245.333,330.5 246,430.5C 247.27,434.77 250.104,437.27 254.5,438C 354.543,438.991 454.543,438.658 554.5,437C 556,435.5 557.5,434 559,432.5C 559.5,393.835 559.667,355.168 559.5,316.5C 559.5,316.167 559.5,315.833 559.5,315.5C 595.481,314.26 624.647,299.593 647,271.5C 671.027,237.085 682.527,198.751 681.5,156.5C 682.212,106.776 664.545,64.9431 628.5,31C 609.077,15.5797 587.077,6.07968 562.5,2.5C 671.332,1.50051 780.332,1.16718 889.5,1.5C 889.5,197.5 889.5,393.5 889.5,589.5C 882.446,561.952 864.78,551.119 836.5,557C 827.249,560.291 818.915,565.124 811.5,571.5C 810.516,568.572 810.183,565.572 810.5,562.5C 810.5,560.833 810.5,559.167 810.5,557.5C 802.167,557.5 793.833,557.5 785.5,557.5C 785.168,597.67 785.501,637.67 786.5,677.5C 795.5,677.5 804.5,677.5 813.5,677.5C 813.333,653.831 813.5,630.164 814,606.5C 818.807,584.019 831.974,576.519 853.5,584C 858.285,588.069 861.119,593.236 862,599.5C 862.5,625.498 862.667,651.498 862.5,677.5C 871.5,677.5 880.5,677.5 889.5,677.5C 889.5,693.5 889.5,709.5 889.5,725.5C 836.331,725.832 783.331,725.499 730.5,724.5C 751.881,714.462 763.381,697.462 765,673.5C 765.5,634.835 765.667,596.168 765.5,557.5C 757.167,557.5 748.833,557.5 740.5,557.5C 740.942,562.691 740.442,567.691 739,572.5C 716.715,551.513 693.215,550.013 668.5,568C 648.319,590.932 643.819,616.765 655,645.5C 665.083,668.963 682.916,679.796 708.5,678C 718.98,675.762 727.98,670.929 735.5,663.5C 736.325,662.614 737.325,662.281 738.5,662.5C 736.907,695.924 719.907,708.424 687.5,700C 680.024,696.848 673.358,692.514 667.5,687C 666.216,686.316 665.049,686.483 664,687.5C 660.667,692.167 657.333,696.833 654,701.5C 652.813,703.044 652.48,704.711 653,706.5C 661.441,714.773 671.275,720.773 682.5,724.5C 455.667,725.5 228.667,725.833 1.5,725.5C 1.16868,696.995 1.50201,668.662 2.5,640.5C 11.9071,670.033 31.9071,682.533 62.5,678C 72.5577,675.139 81.2244,669.972 88.5,662.5C 90.1525,667.354 90.8192,672.354 90.5,677.5C 98.8333,677.5 107.167,677.5 115.5,677.5C 115.5,619.167 115.5,560.833 115.5,502.5C 112.15,502.335 108.817,502.502 105.5,503C 99.6667,506.167 93.8333,509.333 88,512.5C 87.833,532.175 87.333,551.842 86.5,571.5C 67.9957,553.485 47.329,550.652 24.5,563C 13.5896,570.983 6.25622,581.483 2.5,594.5C 1.50028,397.001 1.16695,199.334 1.5,1.5C 125.5,1.5 249.5,1.5 373.5,1.5 Z"/></g>
<g><path style="opacity:1" fill="#fe5252" d="M 373.5,1.5 C 436.523,1.18121 499.523,1.51454 562.5,2.5C 587.077,6.07968 609.077,15.5797 628.5,31C 664.545,64.9431 682.212,106.776 681.5,156.5C 682.527,198.751 671.027,237.085 647,271.5C 624.647,299.593 595.481,314.26 559.5,315.5C 559.989,273.748 559.489,232.081 558,190.5C 535.805,167.972 513.305,145.805 490.5,124C 449.501,123.5 408.501,123.333 367.5,123.5C 367.333,85.1652 367.5,46.8319 368,8.5C 369.666,6.00432 371.5,3.67098 373.5,1.5 Z"/></g>
<g><path style="opacity:1" fill="#4c00fe" d="M 367.5,123.5 C 367.333,184.834 367.5,246.168 368,307.5C 369.072,311.573 371.572,314.407 375.5,316C 436.832,316.5 498.166,316.667 559.5,316.5C 559.667,355.168 559.5,393.835 559,432.5C 557.5,434 556,435.5 554.5,437C 454.543,438.658 354.543,438.991 254.5,438C 250.104,437.27 247.27,434.77 246,430.5C 245.333,330.5 245.333,230.5 246,130.5C 247.587,127.244 250.087,125.077 253.5,124C 291.499,123.5 329.499,123.333 367.5,123.5 Z"/></g>
<g><path style="opacity:1" fill="#010101" d="M 367.5,123.5 C 408.501,123.333 449.501,123.5 490.5,124C 513.305,145.805 535.805,167.972 558,190.5C 559.489,232.081 559.989,273.748 559.5,315.5C 559.5,315.833 559.5,316.167 559.5,316.5C 498.166,316.667 436.832,316.5 375.5,316C 371.572,314.407 369.072,311.573 368,307.5C 367.5,246.168 367.333,184.834 367.5,123.5 Z"/></g>
<g><path style="opacity:1" fill="#030303" d="M 2.5,640.5 C 1.41236,635.395 0.412357,630.395 -0.5,625.5C -0.5,619.5 -0.5,613.5 -0.5,607.5C 0.402166,603.242 1.40217,598.909 2.5,594.5C 6.25622,581.483 13.5896,570.983 24.5,563C 47.329,550.652 67.9957,553.485 86.5,571.5C 87.333,551.842 87.833,532.175 88,512.5C 93.8333,509.333 99.6667,506.167 105.5,503C 108.817,502.502 112.15,502.335 115.5,502.5C 115.5,560.833 115.5,619.167 115.5,677.5C 107.167,677.5 98.8333,677.5 90.5,677.5C 90.8192,672.354 90.1525,667.354 88.5,662.5C 81.2244,669.972 72.5577,675.139 62.5,678C 31.9071,682.533 11.9071,670.033 2.5,640.5 Z"/></g>
<g><path style="opacity:1" fill="#050505" d="M 614.5,505.5 C 630.509,503.677 637.676,510.677 636,526.5C 632.501,535.336 626.001,539.169 616.5,538C 605.607,533.668 601.774,525.835 605,514.5C 607.406,510.592 610.572,507.592 614.5,505.5 Z"/></g>
<g><path style="opacity:1" fill="#020202" d="M 178.5,555.5 C 212.487,553.06 234.32,568.06 244,600.5C 249.442,626.363 242.942,648.53 224.5,667C 206.77,679.772 187.437,682.772 166.5,676C 146.923,667.415 135.089,652.582 131,631.5C 125.686,603.651 134.186,581.151 156.5,564C 163.461,559.852 170.795,557.019 178.5,555.5 Z"/></g>
<g><path style="opacity:1" fill="#030303" d="M 303.5,555.5 C 333.324,552.564 353.991,564.731 365.5,592C 357.612,595.444 349.612,598.61 341.5,601.5C 331.993,581.835 317.326,576.335 297.5,585C 285.21,596.206 280.71,610.039 284,626.5C 288.282,648.717 301.449,657.55 323.5,653C 332.09,648.909 338.09,642.409 341.5,633.5C 349.46,636.765 357.46,639.931 365.5,643C 353.346,671.645 331.679,683.645 300.5,679C 276.722,672.221 262.222,656.721 257,632.5C 251.547,605.186 259.38,582.686 280.5,565C 287.747,560.536 295.414,557.37 303.5,555.5 Z"/></g>
<g><path style="opacity:1" fill="#030303" d="M 533.5,555.5 C 551.543,554.344 568.21,558.511 583.5,568C 585.976,569.309 587.976,571.142 589.5,573.5C 585.234,579.71 580.734,585.71 576,591.5C 562.509,581.002 547.343,577.169 530.5,580C 523.877,583.193 521.71,588.36 524,595.5C 525.5,597 527,598.5 528.5,600C 542.922,603.858 557.256,608.192 571.5,613C 587.886,620.269 594.386,632.769 591,650.5C 585.296,667.457 573.463,676.957 555.5,679C 533.151,682.081 513.151,676.748 495.5,663C 493.876,661.883 492.876,660.383 492.5,658.5C 495.038,651.385 497.872,644.385 501,637.5C 509.739,646.554 520.239,652.72 532.5,656C 540.232,656.856 547.898,656.523 555.5,655C 566.189,650.997 568.522,644.33 562.5,635C 547.155,630.332 531.822,625.665 516.5,621C 501.424,613.014 495.257,600.514 498,583.5C 504.125,566.87 515.958,557.537 533.5,555.5 Z"/></g>
<g><path style="opacity:1" fill="#030303" d="M 730.5,724.5 C 725.319,725.617 720.319,726.951 715.5,728.5C 709.5,728.5 703.5,728.5 697.5,728.5C 692.73,726.803 687.73,725.47 682.5,724.5C 671.275,720.773 661.441,714.773 653,706.5C 652.48,704.711 652.813,703.044 654,701.5C 657.333,696.833 660.667,692.167 664,687.5C 665.049,686.483 666.216,686.316 667.5,687C 673.358,692.514 680.024,696.848 687.5,700C 719.907,708.424 736.907,695.924 738.5,662.5C 737.325,662.281 736.325,662.614 735.5,663.5C 727.98,670.929 718.98,675.762 708.5,678C 682.916,679.796 665.083,668.963 655,645.5C 643.819,616.765 648.319,590.932 668.5,568C 693.215,550.013 716.715,551.513 739,572.5C 740.442,567.691 740.942,562.691 740.5,557.5C 748.833,557.5 757.167,557.5 765.5,557.5C 765.667,596.168 765.5,634.835 765,673.5C 763.381,697.462 751.881,714.462 730.5,724.5 Z"/></g>
<g><path style="opacity:1" fill="#010101" d="M 889.5,589.5 C 889.5,618.833 889.5,648.167 889.5,677.5C 880.5,677.5 871.5,677.5 862.5,677.5C 862.667,651.498 862.5,625.498 862,599.5C 861.119,593.236 858.285,588.069 853.5,584C 831.974,576.519 818.807,584.019 814,606.5C 813.5,630.164 813.333,653.831 813.5,677.5C 804.5,677.5 795.5,677.5 786.5,677.5C 786.5,637.833 786.5,598.167 786.5,558.5C 794.167,558.5 801.833,558.5 809.5,558.5C 809.232,560.099 809.566,561.432 810.5,562.5C 810.183,565.572 810.516,568.572 811.5,571.5C 818.915,565.124 827.249,560.291 836.5,557C 864.78,551.119 882.446,561.952 889.5,589.5 Z"/></g>
<g><path style="opacity:1" fill="#010101" d="M 377.5,558.5 C 386.5,558.5 395.5,558.5 404.5,558.5C 404.169,583.339 404.502,608.006 405.5,632.5C 405.564,643.071 410.564,650.237 420.5,654C 429.717,655.623 438.384,654.29 446.5,650C 450.507,646.002 453.007,641.169 454,635.5C 454.5,609.502 454.667,583.502 454.5,557.5C 463.5,557.5 472.5,557.5 481.5,557.5C 481.667,583.169 481.5,608.835 481,634.5C 477.501,665.832 460.001,680.832 428.5,679.5C 397.119,679.623 380.286,663.957 378,632.5C 377.5,607.836 377.333,583.169 377.5,558.5 Z"/></g>
<g><path style="opacity:1" fill="#5b5b5b" d="M 377.5,558.5 C 386.652,557.506 395.985,557.173 405.5,557.5C 405.5,582.5 405.5,607.5 405.5,632.5C 404.502,608.006 404.169,583.339 404.5,558.5C 395.5,558.5 386.5,558.5 377.5,558.5 Z"/></g>
<g><path style="opacity:1" fill="#050505" d="M 624.5,557.5 C 627.777,557.216 630.943,557.549 634,558.5C 634.5,598.165 634.667,637.832 634.5,677.5C 625.167,677.5 615.833,677.5 606.5,677.5C 606.333,640.832 606.5,604.165 607,567.5C 613.001,564.303 618.835,560.97 624.5,557.5 Z"/></g>
<g><path style="opacity:1" fill="#232323" d="M 810.5,562.5 C 809.566,561.432 809.232,560.099 809.5,558.5C 801.833,558.5 794.167,558.5 786.5,558.5C 786.5,598.167 786.5,637.833 786.5,677.5C 785.501,637.67 785.168,597.67 785.5,557.5C 793.833,557.5 802.167,557.5 810.5,557.5C 810.5,559.167 810.5,560.833 810.5,562.5 Z"/></g>
<g><path style="opacity:1" fill="#fcfcfc" d="M 182.5,580.5 C 203.687,580.023 215.521,590.357 218,611.5C 219.465,625.387 215.632,637.554 206.5,648C 195.252,655.827 183.586,656.494 171.5,650C 163.747,643.663 159.247,635.496 158,625.5C 155.003,609.965 159.17,596.798 170.5,586C 174.227,583.299 178.227,581.465 182.5,580.5 Z"/></g>
<g><path style="opacity:1" fill="#fcfcfc" d="M 28.5,630.5 C 27.8348,623.52 27.5015,616.52 27.5,609.5C 32.0673,585.772 46.0673,576.938 69.5,583C 78.5955,588.339 84.4288,596.172 87,606.5C 89.5124,619.852 87.179,632.186 80,643.5C 70.1631,654.555 58.3298,657.388 44.5,652C 36.1381,647.119 30.8047,639.952 28.5,630.5 Z"/></g>
<g><path style="opacity:1" fill="#fcfcfc" d="M 700.5,580.5 C 719.571,578.736 731.738,587.07 737,605.5C 741.061,622.181 736.894,636.348 724.5,648C 700.269,658.97 684.769,651.47 678,625.5C 673.891,604.384 681.391,589.384 700.5,580.5 Z"/></g>
<g><path style="opacity:1" fill="#959595" d="M 27.5,609.5 C 27.5015,616.52 27.8348,623.52 28.5,630.5C 27.0456,626.426 26.3789,622.093 26.5,617.5C 26.5025,614.645 26.8359,611.978 27.5,609.5 Z"/></g>
<g><path style="opacity:1" fill="#dfdfea" d="M -0.5,625.5 C 0.412357,630.395 1.41236,635.395 2.5,640.5C 1.50201,668.662 1.16868,696.995 1.5,725.5C 228.667,725.833 455.667,725.5 682.5,724.5C 687.73,725.47 692.73,726.803 697.5,728.5C 464.833,728.5 232.167,728.5 -0.5,728.5C -0.5,694.167 -0.5,659.833 -0.5,625.5 Z"/></g>
<g><path style="opacity:1" fill="#dedee9" d="M 730.5,724.5 C 783.331,725.499 836.331,725.832 889.5,725.5C 889.5,726.5 889.5,727.5 889.5,728.5C 831.5,728.5 773.5,728.5 715.5,728.5C 720.319,726.951 725.319,725.617 730.5,724.5 Z"/></g>
</svg>
